<?xml version="1.0" encoding="UTF-8" standalone="no"?>
<svg
   width="100%"
   height="100%"
   viewBox="0 0 100 100"
   version="1.1"
   id="svg30"
   sodipodi:docname="logo.svg"
   inkscape:version="1.1 (ce6663b3b7, 2021-05-25)"
   xmlns:inkscape="http://www.inkscape.org/namespaces/inkscape"
   xmlns:sodipodi="http://sodipodi.sourceforge.net/DTD/sodipodi-0.dtd"
   xmlns="http://www.w3.org/2000/svg"
   xmlns:svg="http://www.w3.org/2000/svg"
   xmlns:rdf="http://www.w3.org/1999/02/22-rdf-syntax-ns#"
   xmlns:cc="http://creativecommons.org/ns#">
  <defs
     id="defs34" />
  <sodipodi:namedview
     id="namedview32"
     pagecolor="#ffffff"
     bordercolor="#666666"
     borderopacity="1.0"
     inkscape:pageshadow="2"
     inkscape:pageopacity="0.0"
     inkscape:pagecheckerboard="0"
     showgrid="false"
     showguides="true"
     inkscape:zoom="8.0000004"
     inkscape:cx="27.062499"
     inkscape:cy="54.437498"
     inkscape:window-width="2556"
     inkscape:window-height="1401"
     inkscape:window-x="1920"
     inkscape:window-y="18"
     inkscape:window-maximized="1"
     inkscape:current-layer="svg30"
     objecttolerance="10"
     guidetolerance="10"
     inkscape:snap-perpendicular="false"
     inkscape:snap-tangential="false"
     inkscape:object-paths="true"
     inkscape:snap-intersection-paths="true"
     inkscape:snap-smooth-nodes="true"
     inkscape:snap-midpoints="true"
     inkscape:guide-bbox="true"
     inkscape:snap-bbox="true"
     gridtolerance="10"
     inkscape:lockguides="false" />
  <metadata
     id="metadata36">
    <rdf:RDF>
      <cc:Work
         rdf:about="" />
    </rdf:RDF>
  </metadata>
  <path
     id="text10145"
     style="font-weight:bold;font-size:82.0063px;line-height:1.25;font-family:Roboto;-inkscape-font-specification:'Roboto Bold';stroke-width:4.10033"
     inkscape:label="F"
     d="M 8.696289,20.849609 V 79.150391 H 20.749023 V 55.326172 H 43.813477 V 45.634766 H 20.749023 V 30.580078 h 25.947266 v 48.570313 h 17.818359 c 7.95502,0 14.401326,-2.549751 19.339844,-7.648438 4.965213,-5.125381 7.449219,-11.850942 7.449219,-20.179687 V 48.71875 c 0,-8.328745 -2.484006,-15.056259 -7.449219,-20.181641 -4.938518,-5.125381 -11.331447,-7.6875 -19.179687,-7.6875 H 46.696289 Z m 50.052734,9.730469 h 6.28711 c 4.698266,0.08008 8.208811,1.628031 10.53125,4.644531 2.349133,3.016501 3.523437,7.487841 3.523437,13.414063 v 3.042969 c -0.05339,5.712664 -1.322081,10.103938 -3.804687,13.173828 -2.455912,3.06989 -6.046524,4.605469 -10.771485,4.605469 h -5.765625 z" />
</svg>
